# xmcd
# 
# Track frame offsets:
#     150
#     16817
#     30716
#     42864
#     60363
#     74280
#     90702
#     116835
#     134352
#     148997
#     169032
#     184834
#     193987
#     210258
#     230322
# 
# Disc length: 3307
# 
# Revision: 3
# Processed by: cddbd v1.5.2PL0 Copyright (c) Steve Scherf et al.
# Submitted via: fre:ac v1.0.31
# 
DISCID=d20ce90f
DTITLE=Country - Boots, Buckles and Spurs Disc 2
DYEAR=2008
DGENRE=Country
TTITLE0=(We Are) The Cowboys
TTITLE1=My Heroes Have Always Been Cowboys
TTITLE2=I Was Born To Be a Cowboy
TTITLE3=Leavin' Cheyenne
TTITLE4=The Wayward Wind
TTITLE5=Oklahoma Borderline
TTITLE6=(Ghost) Riders in the Sky
TTITLE7=Texas In 1880
TTITLE8=Silver Stallion
TTITLE9=Caballo Diablo
TTITLE10=Hooked on an 8 Second Ride
TTITLE11=Hold on Partner
TTITLE12=Rainbow Rider
TTITLE13=Coyotes
TTITLE14=Someday Soon
EXTD=
EXTT0=
EXTT1=
EXTT2=
EXTT3=
EXTT4=
EXTT5=
EXTT6=
EXTT7=
EXTT8=
EXTT9=
EXTT10=
EXTT11=
EXTT12=
EXTT13=
EXTT14=
PLAYORDER=
